<?xml version="1.0" encoding="UTF-8"?>
<svg id="a" data-name="sun__icon" xmlns="http://www.w3.org/2000/svg" viewBox="0 0 105.36 107.37">
  <path d="M52.88,80.06c-14.61,0-26.5-11.89-26.5-26.5,0-11.06,6.97-21.06,17.35-24.88l3.11-1.14-1.19,3.09c-1.04,2.7-1.57,5.54-1.57,8.44,0,12.96,10.54,23.5,23.5,23.5,2.79,0,5.52-.48,8.11-1.44l3.11-1.14-1.19,3.09c-3.91,10.16-13.85,16.99-24.73,16.99ZM41.83,32.82c-7.56,4.04-12.45,12.02-12.45,20.74,0,12.96,10.54,23.5,23.5,23.5,8.57,0,16.48-4.77,20.57-12.15-1.91.43-3.88.65-5.86.65-14.61,0-26.5-11.89-26.5-26.5,0-2.12.25-4.21.75-6.25Z" fill="#000" stroke-width="0"/>
</svg>