<?xml version="1.0" encoding="UTF-8"?>
<svg id="a" data-name="sun__icon" xmlns="http://www.w3.org/2000/svg" viewBox="0 0 105.36 107.37">
  <g id="b" data-name="rays">
    <path d="M52.88,17.85c-1.1,0-2-.9-2-2V4.29c0-1.1.9-2,2-2s2,.9,2,2v11.56c0,1.1-.9,2-2,2Z" fill="#000" stroke-width="0"/>
    <path d="M52.88,104.84c-1.1,0-2-.9-2-2v-11.56c0-1.1.9-2,2-2s2,.9,2,2v11.56c0,1.1-.9,2-2,2Z" fill="#000" stroke-width="0"/>
    <path d="M102.15,55.56h-11.56c-1.1,0-2-.9-2-2s.9-2,2-2h11.56c1.1,0,2,.9,2,2s-.9,2-2,2Z" fill="#000" stroke-width="0"/>
    <path d="M15.16,55.56H3.6c-1.1,0-2-.9-2-2s.9-2,2-2h11.56c1.1,0,2,.9,2,2s-.9,2-2,2Z" fill="#000" stroke-width="0"/>
    <path d="M26.4,28.71c-.52,0-1.03-.2-1.42-.6l-8.12-8.23c-.78-.79-.77-2.05.02-2.83.79-.78,2.05-.77,2.83.02l8.12,8.23c.78.79.77,2.05-.02,2.83-.39.38-.9.58-1.4.58Z" fill="#000" stroke-width="0"/>
    <path d="M87.47,90.66c-.52,0-1.03-.2-1.42-.6l-8.12-8.23c-.78-.79-.77-2.05.02-2.83.79-.78,2.05-.77,2.83.02l8.12,8.23c.78.79.77,2.05-.02,2.83-.39.38-.9.58-1.4.58Z" fill="#000" stroke-width="0"/>
    <path d="M79.73,29.09c-.52,0-1.03-.2-1.42-.6-.78-.79-.77-2.05.02-2.83l8.23-8.12c.79-.78,2.05-.77,2.83.02.78.79.77,2.05-.02,2.83l-8.23,8.12c-.39.38-.9.58-1.4.58Z" fill="#000" stroke-width="0"/>
    <path d="M17.78,90.15c-.52,0-1.03-.2-1.42-.6-.78-.79-.77-2.05.02-2.83l8.23-8.12c.79-.78,2.05-.77,2.83.02.78.79.77,2.05-.02,2.83l-8.23,8.12c-.39.38-.9.58-1.4.58Z" fill="#000" stroke-width="0"/>
  </g>
  <g id="c" data-name="sun">
    <path d="M52.88,32.57c11.58,0,21,9.42,21,21s-9.42,21-21,21-21-9.42-21-21,9.42-21,21-21M52.88,28.57c-13.81,0-25,11.19-25,25s11.19,25,25,25,25-11.19,25-25-11.19-25-25-25h0Z" fill="#000" stroke-width="0"/>
  </g>
</svg>